<?xml version="1.0" encoding="UTF-8"?>
<svg width="155" height="155" version="1.1" viewBox="0 0 155 155" xmlns="http://www.w3.org/2000/svg" xmlns:cc="http://creativecommons.org/ns#" xmlns:dc="http://purl.org/dc/elements/1.1/" xmlns:rdf="http://www.w3.org/1999/02/22-rdf-syntax-ns#">
  <metadata>
    <rdf:RDF>
      <cc:Work rdf:about="">
        <dc:format>image/svg+xml</dc:format>
        <dc:type rdf:resource="http://purl.org/dc/dcmitype/StillImage"/>
        <dc:title/>
      </cc:Work>
    </rdf:RDF>
  </metadata>
  <path d="m105 0-45 18v10l45-18 50 35v-10l-50-35zm0 20-45 18v10l45-18 50 35v-10l-50-35zm0 20-44.092 17.637 9.0918 6.3633 35-14 50 35v-10l-50-35zm0 20-35 14v10l35-14 50 35v-10l-50-35zm0 20-35 14v10l35-14 50 35v-10l-50-35zm0 20-35 14v10l35-14 50 35v-10l-50-35zm0 20-35 14v10l35-14 50 35v-10l-50-35zm0 20-35 14v25l35-14 50 35v-25l-50-35z" fill="#77bd43"/>
  <path d="m50 50-50 20v10l50-20 20 14v-10l-20-14zm0 20-50 20v10l50-20 20 14v-10l-20-14zm0 20-50 20v10l50-20 20 14v-10l-20-14zm0 20-50 20v10l50-20 20 14v-10l-20-14zm0 20-50 20v25l50-20 20 14v-25l-20-14z" fill="#f5a81c"/>
</svg>
